<?xml version="1.0" standalone="no"?><!DOCTYPE svg PUBLIC "-//W3C//DTD SVG 1.1//EN" "http://www.w3.org/Graphics/SVG/1.1/DTD/svg11.dtd"><svg t="1663145407179" class="icon" viewBox="0 0 1024 1024" version="1.1" xmlns="http://www.w3.org/2000/svg" p-id="15942" xmlns:xlink="http://www.w3.org/1999/xlink" width="200" height="200"><path d="M530.545778 301.169778c-87.950222 0-159.288889 31.175111-159.288889 69.632s71.338667 69.632 159.288889 69.632 159.288889-31.175111 159.288889-69.632-71.338667-69.632-159.288889-69.632zM371.256889 444.416v70.997333c0 26.965333 62.008889 66.218667 159.288889 66.218667s159.288889-39.253333 159.288889-66.218667v-70.997333c-31.971556 27.761778-91.022222 46.421333-159.288889 46.421333s-127.431111-18.659556-159.288889-46.421333zM371.256889 585.728v70.883556c0 27.079111 62.008889 66.218667 159.288889 66.218666s159.288889-39.139556 159.288889-66.218666v-70.883556c-31.971556 27.648-91.022222 46.307556-159.288889 46.307556s-127.431111-18.659556-159.288889-46.307556zM183.637333 345.543111l39.936 110.250667-139.719111-48.583111 99.783111-61.667556z" fill="#A391C4" p-id="15943"></path><path d="M530.545778 102.4a408.917333 408.917333 0 0 0-330.865778 168.163556l42.439111 30.947555a355.555556 355.555556 0 1 1-54.840889 111.502222L136.533333 398.222222A409.6 409.6 0 1 0 530.545778 102.4z" fill="#A391C4" p-id="15944"></path></svg>